<svg xmlns="http://www.w3.org/2000/svg" viewBox="48 71 96 96">
  <style>
    .glyph { fill: #0D0D0D; }
    @media (prefers-color-scheme: dark) {
      .glyph { fill: #F5F3EF; }
    }
  </style>
  <path
    class="glyph"
    d="M126.71,124.79l-25.66-.02-.3-6.33h32.29c-.09,4.34.5,11.26-.29,15.72-5.63,13.79-19.18,20.55-33.34,20.34-20.54-.3-35.69-16.45-34.49-36.95.98-16.7,13.42-29.79,30.13-31.96,13.81-1.8,27.05,3.38,35.19,14.91l-5.41,3.85c-8.74-13.42-27.84-16.43-40.68-7.98-15.07,9.91-16.96,31.77-3.65,44.05,12.09,11.16,30.86,9.88,41.91-1.52,3.34-4.05,4.91-6.65,4.31-14.11Z"
  />
</svg>
